<svg width="32" height="32" viewBox="0 0 32 32" fill="none" xmlns="http://www.w3.org/2000/svg">
<rect width="32" height="32" rx="4.87635" fill="#242424"/>
<path fill-rule="evenodd" clip-rule="evenodd" d="M23.0204 18.1285C23.6402 17.1681 23.9686 16.0525 23.9668 14.9136C23.9668 11.6043 21.2507 8.92182 17.9 8.92182C16.7021 8.92182 15.5854 9.26474 14.645 9.85609C14.0192 9.89075 13.3998 9.99875 12.7998 10.1778C13.4537 9.48927 14.2438 8.94071 15.1211 8.56609C15.9984 8.19148 16.9443 7.99881 17.9 8.00001C21.7659 8.00001 24.9001 11.0955 24.9001 14.9136C24.9013 15.8576 24.7062 16.7918 24.3269 17.6583C23.9476 18.5248 23.3922 19.3051 22.6951 19.9509C22.8729 19.3688 22.9844 18.7585 23.0204 18.1285Z" fill="white"/>
<path fill-rule="evenodd" clip-rule="evenodd" d="M23.9355 18.4179C23.5976 18.9844 23.18 19.5005 22.6951 19.9509C22.8729 19.3688 22.9844 18.7586 23.0204 18.1285C23.6402 17.1681 23.9686 16.0525 23.9668 14.9136C23.9668 11.6043 21.2507 8.92183 17.9 8.92183C16.7021 8.92183 15.5854 9.26474 14.645 9.85609C14.0192 9.89076 13.3998 9.99875 12.7998 10.1778C13.2559 9.69894 13.7785 9.28645 14.352 8.95271C15.4269 8.32709 16.6523 7.99807 17.9 8.00001C21.7659 8.00001 24.9001 11.0955 24.9001 14.9136C24.9023 16.146 24.5691 17.3563 23.9355 18.4179Z" fill="white"/>
<path fill-rule="evenodd" clip-rule="evenodd" d="M22.0995 17.6791C22.0995 21.4973 18.9653 24.5928 15.0994 24.5928C11.2335 24.5928 8.09937 21.4973 8.09937 17.6791C8.09937 13.861 11.2335 10.7655 15.0994 10.7655C18.9653 10.7655 22.0995 13.861 22.0995 17.6791ZM14.6328 15.3746C14.3852 15.3746 14.1478 15.4717 13.9728 15.6446C13.7977 15.8175 13.6994 16.0519 13.6994 16.2964C13.6994 16.5409 13.7977 16.7754 13.9728 16.9482C14.1478 17.1211 14.3852 17.2182 14.6328 17.2182V15.3746ZM15.5661 14.4528V13.9919H14.6328V14.4528C14.1377 14.4528 13.6629 14.647 13.3128 14.9928C12.9627 15.3385 12.7661 15.8074 12.7661 16.2964C12.7661 16.7854 12.9627 17.2543 13.3128 17.6001C13.6629 17.9458 14.1377 18.14 14.6328 18.14V19.9837C14.2267 19.9837 13.8809 19.7279 13.7521 19.3693C13.733 19.3106 13.7022 19.2563 13.6615 19.2096C13.6208 19.163 13.571 19.1248 13.5151 19.0974C13.4591 19.0701 13.3982 19.0541 13.336 19.0504C13.2737 19.0467 13.2113 19.0553 13.1524 19.0759C13.0936 19.0964 13.0395 19.1284 12.9934 19.1699C12.9473 19.2114 12.9101 19.2617 12.884 19.3176C12.8579 19.3736 12.8434 19.4342 12.8415 19.4958C12.8395 19.5574 12.85 19.6188 12.8725 19.6763C13.0012 20.0358 13.2396 20.347 13.5548 20.5671C13.8701 20.7873 14.2467 20.9055 14.6328 20.9055V21.3664H15.5661V20.9055C16.0612 20.9055 16.536 20.7113 16.886 20.3655C17.2361 20.0198 17.4328 19.5508 17.4328 19.0619C17.4328 18.5729 17.2361 18.104 16.886 17.7582C16.536 17.4125 16.0612 17.2182 15.5661 17.2182V15.3746C15.9721 15.3746 16.3179 15.6304 16.4467 15.989C16.4658 16.0477 16.4966 16.1019 16.5374 16.1486C16.5781 16.1953 16.6279 16.2335 16.6838 16.2608C16.7397 16.2882 16.8006 16.3042 16.8629 16.3079C16.9252 16.3116 16.9876 16.3029 17.0464 16.2824C17.1052 16.2619 17.1593 16.2299 17.2054 16.1884C17.2515 16.1469 17.2887 16.0966 17.3148 16.0406C17.3409 15.9847 17.3554 15.9241 17.3574 15.8625C17.3594 15.8009 17.3488 15.7395 17.3264 15.682C17.1976 15.3225 16.9593 15.0113 16.644 14.7911C16.3288 14.571 15.9522 14.4528 15.5661 14.4528ZM15.5661 18.14V19.9837C15.8136 19.9837 16.051 19.8866 16.2261 19.7137C16.4011 19.5408 16.4994 19.3063 16.4994 19.0619C16.4994 18.8174 16.4011 18.5829 16.2261 18.41C16.051 18.2372 15.8136 18.14 15.5661 18.14Z" fill="white"/>
</svg>
