<svg width="98" height="99" viewBox="0 0 98 99" fill="none" xmlns="http://www.w3.org/2000/svg">
<rect width="97.7778" height="99" rx="8.04598" fill="white"/>
<path fill-rule="evenodd" clip-rule="evenodd" d="M68.8108 54.5572C70.7046 51.586 71.7081 48.1347 71.7026 44.6112C71.7026 34.373 63.4036 26.0741 53.1654 26.0741C49.505 26.0741 46.0927 27.135 43.2195 28.9644C41.3073 29.0717 39.4146 29.4058 37.5813 29.9597C39.5792 27.8296 41.9934 26.1325 44.6741 24.9735C47.3547 23.8146 50.2449 23.2185 53.1654 23.2222C64.9778 23.2222 74.5544 32.7988 74.5544 44.6112C74.558 47.5317 73.9618 50.4218 72.8029 53.1025C71.6439 55.7831 69.9469 58.1973 67.8169 60.1953C68.3602 58.3944 68.701 56.5064 68.8108 54.5572Z" fill="#242424"/>
<path fill-rule="evenodd" clip-rule="evenodd" d="M71.607 55.4527C70.5745 57.205 69.2984 58.8018 67.8169 60.1953C68.3602 58.3944 68.701 56.5064 68.8108 54.5572C70.7046 51.586 71.7081 48.1347 71.7026 44.6113C71.7026 34.373 63.4036 26.0741 53.1654 26.0741C49.505 26.0741 46.0927 27.135 43.2195 28.9644C41.3073 29.0717 39.4146 29.4058 37.5813 29.9597C38.9748 28.4782 40.5716 27.2021 42.324 26.1696C45.6087 24.2341 49.3528 23.2162 53.1654 23.2222C64.9778 23.2222 74.5544 32.7988 74.5544 44.6113C74.5611 48.4239 73.5432 52.1682 71.607 55.4527Z" fill="#242424"/>
<path fill-rule="evenodd" clip-rule="evenodd" d="M66.0003 53.1668C66.0003 64.9792 56.4237 74.5558 44.6112 74.5558C32.7988 74.5558 23.2222 64.9792 23.2222 53.1668C23.2222 41.3543 32.7988 31.7777 44.6112 31.7777C56.4237 31.7777 66.0003 41.3543 66.0003 53.1668ZM43.1853 46.0371C42.4289 46.0371 41.7035 46.3376 41.1687 46.8724C40.6339 47.4072 40.3334 48.1326 40.3334 48.889C40.3334 49.6453 40.6339 50.3707 41.1687 50.9055C41.7035 51.4404 42.4289 51.7408 43.1853 51.7408V46.0371ZM46.0372 43.1852V41.7593H43.1853V43.1852C41.6726 43.1852 40.2218 43.7861 39.1521 44.8558C38.0825 45.9255 37.4815 47.3762 37.4815 48.889C37.4815 50.4017 38.0825 51.8525 39.1521 52.9221C40.2218 53.9918 41.6726 54.5927 43.1853 54.5927V60.2965C41.9447 60.2965 40.8881 59.5051 40.4946 58.3957C40.4362 58.2142 40.342 58.0462 40.2175 57.9018C40.0931 57.7573 39.941 57.6393 39.7701 57.5546C39.5993 57.47 39.4132 57.4205 39.2229 57.409C39.0326 57.3976 38.8419 57.4244 38.6621 57.4879C38.4823 57.5514 38.3171 57.6503 38.1762 57.7788C38.0354 57.9073 37.9217 58.0627 37.8419 58.2359C37.7622 58.4091 37.718 58.5965 37.7119 58.7871C37.7058 58.9776 37.7381 59.1675 37.8067 59.3454C38.2 60.4576 38.9284 61.4205 39.8917 62.1015C40.8549 62.7826 42.0056 63.1483 43.1853 63.1483V64.5743H46.0372V63.1483C47.5499 63.1483 49.0007 62.5474 50.0703 61.4778C51.14 60.4081 51.7409 58.9573 51.7409 57.4446C51.7409 55.9319 51.14 54.4811 50.0703 53.4114C49.0007 52.3418 47.5499 51.7408 46.0372 51.7408V46.0371C47.2777 46.0371 48.3344 46.8285 48.7279 47.9379C48.7863 48.1194 48.8805 48.2873 49.0049 48.4318C49.1294 48.5762 49.2815 48.6943 49.4523 48.7789C49.6232 48.8635 49.8093 48.9131 49.9996 48.9245C50.1899 48.936 50.3806 48.9092 50.5604 48.8457C50.7401 48.7821 50.9053 48.6832 51.0462 48.5547C51.1871 48.4263 51.3008 48.2708 51.3805 48.0977C51.4603 47.9245 51.5045 47.7371 51.5106 47.5465C51.5166 47.3559 51.4844 47.1661 51.4158 46.9882C51.0225 45.876 50.294 44.9131 49.3308 44.232C48.3675 43.5509 47.2169 43.1852 46.0372 43.1852ZM46.0372 54.5927V60.2965C46.7935 60.2965 47.5189 59.996 48.0537 59.4612C48.5886 58.9263 48.889 58.201 48.889 57.4446C48.889 56.6882 48.5886 55.9628 48.0537 55.428C47.5189 54.8932 46.7935 54.5927 46.0372 54.5927Z" fill="#242424"/>
</svg>
